<svg width="18" height="18" viewBox="0 0 18 18" fill="none" xmlns="http://www.w3.org/2000/svg">
<path d="M4.1 0V6M13.7 0V6M1.7 3H16.1C16.4183 3 16.7235 3.12643 16.9485 3.35147C17.1736 3.57652 17.3 3.88174 17.3 4.2V16.2C17.3 16.5183 17.1736 16.8235 16.9485 17.0485C16.7235 17.2736 16.4183 17.4 16.1 17.4H1.7C1.38174 17.4 1.07652 17.2736 0.851472 17.0485C0.626428 16.8235 0.5 16.5183 0.5 16.2V4.2C0.5 3.88174 0.626428 3.57652 0.851472 3.35147C1.07652 3.12643 1.38174 3 1.7 3Z" stroke="#9CA3AF"/>
</svg>
