<svg width="20" height="20" viewBox="0 0 20 20" fill="none" xmlns="http://www.w3.org/2000/svg">
<path d="M9.81629 1.4333C9.75908 1.37189 9.69008 1.32264 9.61341 1.28848C9.53674 1.25432 9.45398 1.23595 9.37006 1.23447C9.28614 1.23299 9.20279 1.24843 9.12496 1.27986C9.04714 1.3113 8.97644 1.35808 8.9171 1.41743C8.85775 1.47678 8.81096 1.54748 8.77953 1.6253C8.74809 1.70312 8.73265 1.78648 8.73413 1.8704C8.73561 1.95432 8.75398 2.03708 8.78814 2.11375C8.8223 2.19041 8.87156 2.25941 8.93296 2.31663L9.94963 3.3333C8.49758 3.34305 7.07958 3.77412 5.86778 4.57416C4.65597 5.3742 3.70247 6.50882 3.12302 7.84028C2.54358 9.17174 2.3631 10.6428 2.60351 12.0748C2.84391 13.5069 3.49486 14.8383 4.47733 15.9076C5.4598 16.9768 6.73154 17.7379 8.13816 18.0984C9.54479 18.4588 11.0258 18.4032 12.4015 17.9383C13.7771 17.4733 14.9882 16.619 15.8877 15.4791C16.7872 14.3392 17.3365 12.9627 17.4688 11.5166C17.4762 11.4349 17.4674 11.3525 17.4429 11.2741C17.4185 11.1958 17.3788 11.123 17.3262 11.06C17.2737 10.997 17.2092 10.9449 17.1365 10.9068C17.0638 10.8687 16.9843 10.8453 16.9025 10.8379C16.8208 10.8305 16.7384 10.8393 16.66 10.8637C16.5817 10.8882 16.5089 10.9279 16.4459 10.9804C16.3829 11.033 16.3308 11.0975 16.2927 11.1702C16.2546 11.2429 16.2312 11.3224 16.2238 11.4041C16.1133 12.6087 15.6556 13.7554 14.9062 14.7049C14.1568 15.6545 13.148 16.3662 12.0021 16.7537C10.8562 17.1412 9.62244 17.1879 8.45055 16.888C7.27865 16.5881 6.21896 15.9546 5.40003 15.0643C4.5811 14.174 4.03812 13.0652 3.83696 11.8724C3.6358 10.6796 3.78511 9.45407 4.26677 8.34445C4.74844 7.23483 5.54175 6.28883 6.55049 5.62121C7.55922 4.95358 8.74001 4.59304 9.94963 4.5833L8.93296 5.59997C8.81917 5.7179 8.75624 5.8758 8.75774 6.03967C8.75924 6.20355 8.82505 6.36028 8.94098 6.4761C9.05692 6.59193 9.21371 6.65758 9.37758 6.65893C9.54146 6.66028 9.69931 6.5972 9.81713 6.4833L11.9005 4.39997C12.0175 4.28278 12.0832 4.12392 12.0832 3.9583C12.0832 3.79267 12.0175 3.63382 11.9005 3.51663L9.81629 1.4333ZM13.153 8.51663C13.27 8.63382 13.3357 8.79267 13.3357 8.9583C13.3357 9.12392 13.27 9.28278 13.153 9.39997L9.39963 13.1533C9.28244 13.2703 9.12359 13.3361 8.95796 13.3361C8.79234 13.3361 8.63348 13.2703 8.51629 13.1533L6.84963 11.4866C6.73923 11.3682 6.67912 11.2114 6.68198 11.0495C6.68484 10.8876 6.75043 10.7331 6.86494 10.6186C6.97945 10.5041 7.13394 10.4385 7.29586 10.4357C7.45778 10.4328 7.61448 10.4929 7.73296 10.6033L8.95796 11.8275L12.2688 8.51663C12.386 8.39959 12.5448 8.33385 12.7105 8.33385C12.8761 8.33385 13.0349 8.39959 13.1521 8.51663" fill="#1C1C1C"/>
</svg>
