<svg width="20" height="20" viewBox="0 0 20 20" fill="none" xmlns="http://www.w3.org/2000/svg">
<path d="M11.4417 17.4974C11.2952 17.75 11.0849 17.9596 10.8319 18.1053C10.5788 18.2511 10.292 18.3278 10 18.3278C9.70802 18.3278 9.42116 18.2511 9.16814 18.1053C8.91513 17.9596 8.70484 17.75 8.55833 17.4974M15 6.66406C15 5.33798 14.4732 4.06621 13.5355 3.12853C12.5979 2.19085 11.3261 1.66406 10 1.66406C8.67392 1.66406 7.40215 2.19085 6.46447 3.12853C5.52678 4.06621 5 5.33798 5 6.66406C5 12.4974 2.5 14.1641 2.5 14.1641H17.5C17.5 14.1641 15 12.4974 15 6.66406Z" stroke="#1C1C1C" stroke-opacity="0.5" stroke-width="1.5" stroke-linecap="round" stroke-linejoin="round"/>
</svg>
