<svg width="20" height="20" viewBox="0 0 20 20" fill="none" xmlns="http://www.w3.org/2000/svg">
<path fill-rule="evenodd" clip-rule="evenodd" d="M9.9974 2.28906C7.95302 2.28906 5.99237 3.10119 4.54678 4.54678C3.10119 5.99237 2.28906 7.95302 2.28906 9.9974C2.28906 12.0418 3.10119 14.0024 4.54678 15.448C5.99237 16.8936 7.95302 17.7057 9.9974 17.7057C12.0418 17.7057 14.0024 16.8936 15.448 15.448C16.8936 14.0024 17.7057 12.0418 17.7057 9.9974C17.7057 7.95302 16.8936 5.99237 15.448 4.54678C14.0024 3.10119 12.0418 2.28906 9.9974 2.28906ZM1.03906 9.9974C1.03906 5.0499 5.0499 1.03906 9.9974 1.03906C14.9449 1.03906 18.9557 5.0499 18.9557 9.9974C18.9557 14.9449 14.9449 18.9557 9.9974 18.9557C5.0499 18.9557 1.03906 14.9449 1.03906 9.9974ZM9.9974 4.3724C10.1632 4.3724 10.3221 4.43824 10.4393 4.55545C10.5565 4.67266 10.6224 4.83164 10.6224 4.9974V5.26156C11.9807 5.5049 13.1224 6.52573 13.1224 7.91406C13.1224 8.07982 13.0565 8.23879 12.9393 8.356C12.8221 8.47321 12.6632 8.53906 12.4974 8.53906C12.3316 8.53906 12.1727 8.47321 12.0555 8.356C11.9382 8.23879 11.8724 8.07982 11.8724 7.91406C11.8724 7.34906 11.4024 6.7499 10.6224 6.53656V9.42823C11.9807 9.67156 13.1224 10.6924 13.1224 12.0807C13.1224 13.4691 11.9807 14.4899 10.6224 14.7332V14.9974C10.6224 15.1632 10.5565 15.3221 10.4393 15.4393C10.3221 15.5565 10.1632 15.6224 9.9974 15.6224C9.83164 15.6224 9.67266 15.5565 9.55545 15.4393C9.43824 15.3221 9.3724 15.1632 9.3724 14.9974V14.7332C8.01406 14.4899 6.8724 13.4691 6.8724 12.0807C6.8724 11.915 6.93824 11.756 7.05545 11.6388C7.17266 11.5216 7.33163 11.4557 7.4974 11.4557C7.66316 11.4557 7.82213 11.5216 7.93934 11.6388C8.05655 11.756 8.1224 11.915 8.1224 12.0807C8.1224 12.6457 8.5924 13.2449 9.3724 13.4574V10.5666C8.01406 10.3232 6.8724 9.3024 6.8724 7.91406C6.8724 6.52573 8.01406 5.5049 9.3724 5.26156V4.9974C9.3724 4.83164 9.43824 4.67266 9.55545 4.55545C9.67266 4.43824 9.83164 4.3724 9.9974 4.3724ZM9.3724 6.53656C8.5924 6.7499 8.1224 7.34906 8.1224 7.91406C8.1224 8.47906 8.5924 9.07823 9.3724 9.29073V6.53656ZM10.6224 10.7032V13.4582C11.4024 13.2449 11.8724 12.6466 11.8724 12.0807C11.8724 11.5157 11.4024 10.9157 10.6224 10.7032Z" fill="#1C1C1C" fill-opacity="0.6"/>
</svg>
