<svg width="20" height="20" viewBox="0 0 20 20" fill="none" xmlns="http://www.w3.org/2000/svg">
<path fill-rule="evenodd" clip-rule="evenodd" d="M10.0026 2.5C8.89754 2.5 7.83773 2.93899 7.05633 3.72039C6.27492 4.50179 5.83594 5.5616 5.83594 6.66667C5.83594 7.77174 6.27492 8.83154 7.05633 9.61294C7.11129 9.66791 7.16764 9.72119 7.22528 9.77273C6.51151 10.0998 5.85441 10.5534 5.28856 11.1193C4.03832 12.3695 3.33594 14.0652 3.33594 15.8333V16.6667C3.33594 17.1269 3.70903 17.5 4.16927 17.5C4.62951 17.5 5.0026 17.1269 5.0026 16.6667V15.8333C5.0026 14.5073 5.52939 13.2355 6.46707 12.2978C7.40475 11.3601 8.67652 10.8333 10.0026 10.8333C11.3287 10.8333 12.6005 11.3601 13.5381 12.2978C14.4758 13.2355 15.0026 14.5073 15.0026 15.8333V16.6667C15.0026 17.1269 15.3757 17.5 15.8359 17.5C16.2962 17.5 16.6693 17.1269 16.6693 16.6667V15.8333C16.6693 14.0652 15.9669 12.3695 14.7166 11.1193C14.1508 10.5534 13.4937 10.0998 12.7799 9.77273C12.8376 9.72119 12.8939 9.66791 12.9489 9.61294C13.7303 8.83154 14.1693 7.77174 14.1693 6.66667C14.1693 5.5616 13.7303 4.50179 12.9489 3.72039C12.1675 2.93899 11.1077 2.5 10.0026 2.5ZM8.23484 4.8989C8.70368 4.43006 9.33956 4.16667 10.0026 4.16667C10.6656 4.16667 11.3015 4.43006 11.7704 4.8989C12.2392 5.36774 12.5026 6.00363 12.5026 6.66667C12.5026 7.32971 12.2392 7.96559 11.7704 8.43443C11.3015 8.90327 10.6656 9.16667 10.0026 9.16667C9.33956 9.16667 8.70368 8.90327 8.23484 8.43443C7.766 7.96559 7.5026 7.32971 7.5026 6.66667C7.5026 6.00363 7.766 5.36774 8.23484 4.8989Z" fill="#1C1C1C" fill-opacity="0.6"/>
</svg>
