<svg width="20" height="20" viewBox="0 0 20 20" fill="none" xmlns="http://www.w3.org/2000/svg">
<path d="M15.8333 2.5H4.16667C3.24619 2.5 2.5 3.24619 2.5 4.16667V15.8333C2.5 16.7538 3.24619 17.5 4.16667 17.5H15.8333C16.7538 17.5 17.5 16.7538 17.5 15.8333V4.16667C17.5 3.24619 16.7538 2.5 15.8333 2.5Z" stroke="#1C1C1C" stroke-opacity="0.6" stroke-width="1.5" stroke-linecap="round" stroke-linejoin="round"/>
<path d="M2.5 7.5026C2.5 7.06058 2.67559 6.63665 2.98816 6.32409C3.30072 6.01153 3.72464 5.83594 4.16667 5.83594H15.8333C16.2754 5.83594 16.6993 6.01153 17.0118 6.32409C17.3244 6.63665 17.5 7.06058 17.5 7.5026" stroke="#1C1C1C" stroke-opacity="0.6" stroke-width="1.5" stroke-linecap="round" stroke-linejoin="round"/>
<path d="M2.5 9.16406H5C5.66667 9.16406 6.33333 9.41406 6.75 9.91406L7.66667 10.6641C9 11.9974 11.0833 11.9974 12.4167 10.6641L13.3333 9.91406C13.75 9.4974 14.4167 9.16406 15.0833 9.16406H17.5" stroke="#1C1C1C" stroke-opacity="0.6" stroke-width="1.5" stroke-linecap="round" stroke-linejoin="round"/>
</svg>
