<svg width="20" height="20" viewBox="0 0 20 20" fill="none" xmlns="http://www.w3.org/2000/svg">
<g clip-path="url(#clip0_3208_94281)">
<path d="M8.33594 7.5026C8.33594 7.01346 8.51838 6.70063 8.7579 6.4974C9.01553 6.2788 9.38874 6.14844 9.79427 6.14844C10.1998 6.14844 10.573 6.2788 10.8306 6.4974C11.0702 6.70063 11.2526 7.01346 11.2526 7.5026C11.2526 7.86691 11.1668 8.06916 11.067 8.21874C10.9507 8.39325 10.7976 8.53086 10.5387 8.76358L10.4868 8.81028C10.2205 9.04998 9.87008 9.37402 9.60291 9.84601C9.32758 10.3324 9.16927 10.9202 9.16927 11.6693C9.16927 12.1295 9.54237 12.5026 10.0026 12.5026C10.4628 12.5026 10.8359 12.1295 10.8359 11.6693C10.8359 11.1684 10.938 10.8707 11.0533 10.667C11.1768 10.4489 11.3472 10.2781 11.6017 10.0491C11.6247 10.0285 11.6488 10.007 11.674 9.98451C11.9017 9.78152 12.2136 9.50348 12.4538 9.14324C12.7447 8.70688 12.9193 8.17997 12.9193 7.5026C12.9193 6.53341 12.5288 5.75249 11.9089 5.22655C11.3072 4.71599 10.5346 4.48177 9.79427 4.48177C9.05397 4.48177 8.28134 4.71599 7.6796 5.22655C7.05975 5.75249 6.66927 6.53341 6.66927 7.5026C6.66927 7.96284 7.04237 8.33594 7.5026 8.33594C7.96284 8.33594 8.33594 7.96284 8.33594 7.5026Z" fill="#1C1C1C" fill-opacity="0.6"/>
<path d="M10.6275 15.5623C10.9371 15.2218 10.9121 14.6948 10.5715 14.3852C10.231 14.0756 9.70393 14.1007 9.39434 14.4412L9.386 14.4504C9.0764 14.7909 9.10149 15.3179 9.44203 15.6275C9.78257 15.9371 10.3096 15.9121 10.6192 15.5715L10.6275 15.5623Z" fill="#1C1C1C" fill-opacity="0.6"/>
<path fill-rule="evenodd" clip-rule="evenodd" d="M10.0026 0.835938C4.93987 0.835938 0.835938 4.93987 0.835938 10.0026C0.835938 15.0653 4.93987 19.1693 10.0026 19.1693C15.0653 19.1693 19.1693 15.0653 19.1693 10.0026C19.1693 4.93987 15.0653 0.835938 10.0026 0.835938ZM2.5026 10.0026C2.5026 5.86034 5.86034 2.5026 10.0026 2.5026C14.1449 2.5026 17.5026 5.86034 17.5026 10.0026C17.5026 14.1449 14.1449 17.5026 10.0026 17.5026C5.86034 17.5026 2.5026 14.1449 2.5026 10.0026Z" fill="#1C1C1C" fill-opacity="0.6"/>
</g>
<defs>
<clipPath id="clip0_3208_94281">
<rect width="20" height="20" fill="white"/>
</clipPath>
</defs>
</svg>
