<svg width="20" height="20" viewBox="0 0 20 20" fill="none" xmlns="http://www.w3.org/2000/svg">
<path fill-rule="evenodd" clip-rule="evenodd" d="M9.99739 2.23438C9.23601 2.23438 8.48918 2.443 7.83802 2.83759L3.67135 5.36259C3.05864 5.73388 2.552 6.2569 2.20038 6.88112C1.84877 7.50534 1.66405 8.20968 1.66406 8.92611V14.1694C1.66406 15.2745 2.10305 16.3343 2.88445 17.1157C3.66585 17.8971 4.72566 18.3361 5.83073 18.3361H14.1641C15.2691 18.3361 16.3289 17.8971 17.1103 17.1157C17.8917 16.3343 18.3307 15.2745 18.3307 14.1694V8.92528C18.3306 8.20901 18.1458 7.50469 17.7941 6.88067C17.4425 6.25665 16.936 5.7338 16.3234 5.36259L12.1568 2.83759C11.5056 2.44301 10.7588 2.23438 9.99739 2.23438ZM8.70178 4.26296C9.09247 4.02621 9.54057 3.90104 9.99739 3.90104C10.4542 3.90104 10.9023 4.02621 11.293 4.26296L15.4597 6.78796C15.8272 7.01069 16.1312 7.3244 16.3421 7.69882C16.553 8.07318 16.6639 8.49559 16.6641 8.92528V14.1694C16.6641 14.8325 16.4007 15.4684 15.9318 15.9372C15.463 16.4061 14.8271 16.6694 14.1641 16.6694H13.3307V14.1694C13.3307 13.2854 12.9795 12.4375 12.3544 11.8124C11.7293 11.1873 10.8814 10.8361 9.99739 10.8361C9.11334 10.8361 8.26549 11.1873 7.64037 11.8124C7.01525 12.4375 6.66406 13.2854 6.66406 14.1694V16.6694H5.83073C5.16769 16.6694 4.5318 16.4061 4.06296 15.9372C3.59412 15.4684 3.33073 14.8325 3.33073 14.1694V8.92611C3.33072 8.49625 3.44155 8.07362 3.65252 7.69909C3.86349 7.32456 4.16747 7.01075 4.5351 6.78797L8.70178 4.26296ZM11.1759 12.9909C11.4885 13.3035 11.6641 13.7274 11.6641 14.1694V16.6694H8.33073V14.1694C8.33073 13.7274 8.50632 13.3035 8.81888 12.9909C9.13144 12.6784 9.55537 12.5028 9.99739 12.5028C10.4394 12.5028 10.8633 12.6784 11.1759 12.9909Z" fill="#1C1C1C" fill-opacity="0.6"/>
</svg>
