<svg width="24" height="24" viewBox="0 0 24 24" fill="none" xmlns="http://www.w3.org/2000/svg">
<path d="M10.7246 20.1818C10.5283 19.6503 10.3966 19.0991 10.332 18.5389H1.71429C1.716 18.1364 1.97829 16.9255 3.14057 15.816C4.25829 14.7491 6.36171 13.6364 10.2857 13.6364C10.7314 13.6364 11.1543 13.65 11.5543 13.6773C11.9417 13.1193 12.4046 12.6136 12.9326 12.1751C12.1326 12.0605 11.2503 12.0022 10.2857 12C1.71429 12 0 16.9091 0 18.5455C0 20.1818 1.71429 20.1818 1.71429 20.1818H10.7246Z" fill="#0066FE"/>
<path d="M9.71289 0.75C12.1723 0.75 14.1064 2.64467 14.1064 4.90918C14.1064 7.17365 12.1722 9.06836 9.71289 9.06836C7.25369 9.06822 5.32036 7.17356 5.32031 4.90918C5.32031 2.64476 7.25365 0.750143 9.71289 0.75Z" stroke="#0066FE" stroke-width="1.5"/>
<ellipse cx="17.7154" cy="18" rx="6.28571" ry="6" fill="#0066FE"/>
<path d="M18.8594 15.2734L20.0022 16.3643M20.0022 16.3643L18.8594 17.4553M20.0022 16.3643H16.0022C15.6991 16.3643 15.4084 16.4793 15.1941 16.6839C14.9798 16.8885 14.8594 17.1659 14.8594 17.4553V18.0007M16.0022 21.2734L14.8594 20.1825M14.8594 20.1825L16.0022 19.0916M14.8594 20.1825H18.8594C19.1625 20.1825 19.4532 20.0676 19.6675 19.863C19.8818 19.6584 20.0022 19.3809 20.0022 19.0916V18.5462" stroke="white" stroke-width="0.6" stroke-linecap="round" stroke-linejoin="round"/>
</svg>
