<svg width="20" height="20" viewBox="0 0 20 20" fill="none" xmlns="http://www.w3.org/2000/svg">
<path fill-rule="evenodd" clip-rule="evenodd" d="M12.9974 1.66406C12.6438 1.66406 12.3046 1.80454 12.0546 2.05459C11.8045 2.30464 11.6641 2.64377 11.6641 2.9974V6.66406H7.99739C7.64378 6.66406 7.30464 6.80453 7.05459 7.05459C6.80453 7.30464 6.66406 7.64378 6.66406 7.99739V12.4974H2.9974C2.64377 12.4974 2.30464 12.6379 2.05459 12.8879C1.80454 13.138 1.66406 13.4771 1.66406 13.8307V16.9974C1.66406 17.351 1.80454 17.6902 2.05459 17.9402C2.30464 18.1903 2.64377 18.3307 2.9974 18.3307H16.9974C17.351 18.3307 17.6901 18.1903 17.9402 17.9402C18.1903 17.6901 18.3307 17.351 18.3307 16.9974V2.9974C18.3307 2.64377 18.1903 2.30464 17.9402 2.05459C17.6902 1.80454 17.351 1.66406 16.9974 1.66406H12.9974ZM8.33073 8.33073H11.6641V16.6641H8.33073V8.33073ZM16.6641 16.6641H13.3307V3.33073H16.6641V16.6641ZM6.66406 14.1641V16.6641H3.33073V14.1641H6.66406Z" fill="#1C1C1C" fill-opacity="0.6"/>
</svg>
