<svg width="20" height="20" viewBox="0 0 20 20" fill="none" xmlns="http://www.w3.org/2000/svg">
<g clip-path="url(#clip0_3208_94276)">
<path fill-rule="evenodd" clip-rule="evenodd" d="M10.0026 6.66927C9.11855 6.66927 8.2707 7.02046 7.64558 7.64558C7.02046 8.2707 6.66927 9.11855 6.66927 10.0026C6.66927 10.8867 7.02046 11.7345 7.64558 12.3596C8.2707 12.9847 9.11855 13.3359 10.0026 13.3359C10.8867 13.3359 11.7345 12.9847 12.3596 12.3596C12.9847 11.7345 13.3359 10.8867 13.3359 10.0026C13.3359 9.11855 12.9847 8.2707 12.3596 7.64558C11.7345 7.02046 10.8867 6.66927 10.0026 6.66927ZM8.82409 8.82409C9.13665 8.51153 9.56058 8.33594 10.0026 8.33594C10.4446 8.33594 10.8686 8.51153 11.1811 8.82409C11.4937 9.13665 11.6693 9.56058 11.6693 10.0026C11.6693 10.4446 11.4937 10.8686 11.1811 11.1811C10.8686 11.4937 10.4446 11.6693 10.0026 11.6693C9.56058 11.6693 9.13665 11.4937 8.82409 11.1811C8.51153 10.8686 8.33594 10.4446 8.33594 10.0026C8.33594 9.56058 8.51153 9.13665 8.82409 8.82409Z" fill="#1C1C1C" fill-opacity="0.6"/>
<path fill-rule="evenodd" clip-rule="evenodd" d="M9.15344 0.835938C8.7749 0.835938 8.44391 1.09107 8.34755 1.45714L7.92526 3.06148L6.58356 3.62707L5.55651 2.71334C5.22676 2.41996 4.72544 2.43459 4.41335 2.74668L2.74668 4.41335C2.44476 4.71527 2.41989 5.19654 2.68908 5.52798L3.58918 6.63623L3.03722 7.99417L1.47982 8.35776C1.1027 8.4458 0.835938 8.78202 0.835938 9.16927V10.8359C0.835938 11.2117 1.08743 11.541 1.44995 11.6399L3.05968 12.079L3.62681 13.4244L2.71399 14.448C2.41998 14.7777 2.43432 15.2795 2.74668 15.5919L4.41335 17.2585C4.71567 17.5609 5.19775 17.5853 5.52914 17.3152L6.63701 16.4121L7.96156 16.9569L8.3613 18.54C8.45474 18.91 8.78761 19.1693 9.16927 19.1693H10.8359C11.2174 19.1693 11.5502 18.9102 11.6438 18.5404L12.0445 16.9566L13.4134 16.3897C13.5512 16.5052 13.7092 16.6408 13.8664 16.7777C14.0226 16.9138 14.1678 17.042 14.2741 17.1362C14.3271 17.1833 14.3704 17.2219 14.4002 17.2485L14.4455 17.289C14.775 17.5846 15.2788 17.5716 15.5919 17.2585L17.2585 15.5919C17.5652 15.2851 17.5854 14.7945 17.3048 14.4636L16.3971 13.3932L16.9588 12.0365L18.5455 11.6242C18.9128 11.5287 19.1693 11.1971 19.1693 10.8176V9.16927C19.1693 8.78817 18.9107 8.45563 18.5414 8.36166L16.9645 7.96047L16.4042 6.60705L17.3057 5.54056C17.5854 5.20969 17.5649 4.7197 17.2585 4.41335L15.5919 2.74668C15.2843 2.43909 14.7918 2.41983 14.4611 2.70248L13.4025 3.60733L12.0014 3.03127L11.5877 1.45741C11.4915 1.09121 11.1604 0.835938 10.7818 0.835938H9.15344ZM15.5372 14.9561L14.9671 15.5262L14.9609 15.5208C14.6531 15.2528 14.2567 14.9137 14.0331 14.7539C13.7991 14.5866 13.4953 14.5518 13.2296 14.6619L11.0204 15.5769C10.7772 15.6776 10.596 15.8872 10.5314 16.1423L10.1872 17.5026H9.81833L9.47474 16.1419C9.4101 15.8859 9.22797 15.6757 8.98379 15.5753L6.81213 14.6819C6.52935 14.5656 6.20557 14.6135 5.96857 14.8067L5.05955 15.5477L4.4817 14.9699L5.22122 14.1406C5.43531 13.9005 5.49211 13.5586 5.36716 13.2622L4.438 11.0581C4.33858 10.8222 4.13633 10.6452 3.88943 10.5778L2.5026 10.1995V9.83046L3.83623 9.51912C4.09969 9.45761 4.31689 9.27203 4.41877 9.0214L5.31877 6.80723C5.43323 6.52562 5.38528 6.20403 5.19363 5.96807L4.45653 5.06052L5.036 4.48105L5.86869 5.22187C6.10876 5.43545 6.45022 5.49198 6.74631 5.36716L8.95047 4.438C9.18871 4.33757 9.36684 4.13225 9.43265 3.88223L9.7958 2.5026H10.1392L10.495 3.85613C10.5614 4.10878 10.7424 4.31566 10.984 4.415L13.2399 5.3425C13.5291 5.46141 13.8605 5.40841 14.0982 5.20523L14.9583 4.47011L15.5381 5.04995L14.8037 5.91881C14.6024 6.15691 14.5509 6.48745 14.6701 6.77551L15.5843 8.98384C15.6848 9.22671 15.8941 9.4079 16.1488 9.47271L17.5026 9.81714V10.1731L16.138 10.5277C15.8851 10.5934 15.6776 10.774 15.5777 11.0155L14.6627 13.2255C14.5432 13.514 14.5951 13.8451 14.797 14.0832L15.5372 14.9561Z" fill="#1C1C1C" fill-opacity="0.6"/>
</g>
<defs>
<clipPath id="clip0_3208_94276">
<rect width="20" height="20" fill="white"/>
</clipPath>
</defs>
</svg>
